<mxfile host="app.diagrams.net" agent="Mozilla/5.0 (Windows NT 10.0; Win64; x64) AppleWebKit/537.36 (KHTML, like Gecko) Chrome/131.0.0.0 Safari/537.36 Edg/131.0.0.0" version="25.0.3">
  <diagram id="C5RBs43oDa-KdzZeNtuy" name="Page-1">
    <mxGraphModel dx="853" dy="1086" grid="1" gridSize="10" guides="1" tooltips="1" connect="1" arrows="1" fold="1" page="1" pageScale="1" pageWidth="827" pageHeight="1169" math="0" shadow="0">
      <root>
        <mxCell id="WIyWlLk6GJQsqaUBKTNV-0" />
        <mxCell id="WIyWlLk6GJQsqaUBKTNV-1" parent="WIyWlLk6GJQsqaUBKTNV-0" />
        <mxCell id="ZsbRTiZarjH51kscYrvq-1" value="" style="edgeStyle=orthogonalEdgeStyle;rounded=0;orthogonalLoop=1;jettySize=auto;html=1;" edge="1" parent="WIyWlLk6GJQsqaUBKTNV-1" source="WIyWlLk6GJQsqaUBKTNV-3" target="ZsbRTiZarjH51kscYrvq-0">
          <mxGeometry relative="1" as="geometry" />
        </mxCell>
        <mxCell id="WIyWlLk6GJQsqaUBKTNV-3" value="Start" style="rounded=1;whiteSpace=wrap;html=1;fontSize=12;glass=0;strokeWidth=1;shadow=0;" parent="WIyWlLk6GJQsqaUBKTNV-1" vertex="1">
          <mxGeometry x="255" y="80" width="120" height="40" as="geometry" />
        </mxCell>
        <mxCell id="ZsbRTiZarjH51kscYrvq-3" value="" style="edgeStyle=orthogonalEdgeStyle;rounded=0;orthogonalLoop=1;jettySize=auto;html=1;" edge="1" parent="WIyWlLk6GJQsqaUBKTNV-1" source="ZsbRTiZarjH51kscYrvq-0" target="ZsbRTiZarjH51kscYrvq-2">
          <mxGeometry relative="1" as="geometry" />
        </mxCell>
        <mxCell id="ZsbRTiZarjH51kscYrvq-0" value="Initialize Card Function Pool&#xa;    Initialize Database Connection&#xa;    Initialize Necessary Data Structures" style="rounded=0;whiteSpace=wrap;html=1;" vertex="1" parent="WIyWlLk6GJQsqaUBKTNV-1">
          <mxGeometry x="240" y="160" width="150" height="130" as="geometry" />
        </mxCell>
        <mxCell id="ZsbRTiZarjH51kscYrvq-7" value="No" style="edgeStyle=orthogonalEdgeStyle;rounded=0;orthogonalLoop=1;jettySize=auto;html=1;" edge="1" parent="WIyWlLk6GJQsqaUBKTNV-1" source="ZsbRTiZarjH51kscYrvq-2" target="ZsbRTiZarjH51kscYrvq-6">
          <mxGeometry relative="1" as="geometry" />
        </mxCell>
        <mxCell id="ZsbRTiZarjH51kscYrvq-27" value="Yes" style="edgeStyle=orthogonalEdgeStyle;rounded=0;orthogonalLoop=1;jettySize=auto;html=1;entryX=0.5;entryY=0;entryDx=0;entryDy=0;" edge="1" parent="WIyWlLk6GJQsqaUBKTNV-1" source="ZsbRTiZarjH51kscYrvq-2" target="ZsbRTiZarjH51kscYrvq-26">
          <mxGeometry relative="1" as="geometry" />
        </mxCell>
        <mxCell id="ZsbRTiZarjH51kscYrvq-2" value="Check Game Over?" style="rhombus;whiteSpace=wrap;html=1;" vertex="1" parent="WIyWlLk6GJQsqaUBKTNV-1">
          <mxGeometry x="250" y="330" width="130" height="80" as="geometry" />
        </mxCell>
        <mxCell id="ZsbRTiZarjH51kscYrvq-12" value="Yes" style="edgeStyle=orthogonalEdgeStyle;rounded=0;orthogonalLoop=1;jettySize=auto;html=1;" edge="1" parent="WIyWlLk6GJQsqaUBKTNV-1" source="ZsbRTiZarjH51kscYrvq-6" target="ZsbRTiZarjH51kscYrvq-11">
          <mxGeometry relative="1" as="geometry" />
        </mxCell>
        <mxCell id="ZsbRTiZarjH51kscYrvq-13" value="No" style="edgeStyle=orthogonalEdgeStyle;rounded=0;orthogonalLoop=1;jettySize=auto;html=1;exitX=1;exitY=0.5;exitDx=0;exitDy=0;" edge="1" parent="WIyWlLk6GJQsqaUBKTNV-1" source="ZsbRTiZarjH51kscYrvq-6" target="ZsbRTiZarjH51kscYrvq-2">
          <mxGeometry relative="1" as="geometry">
            <mxPoint x="390" y="370" as="targetPoint" />
            <Array as="points">
              <mxPoint x="425" y="495" />
              <mxPoint x="425" y="370" />
            </Array>
          </mxGeometry>
        </mxCell>
        <mxCell id="ZsbRTiZarjH51kscYrvq-6" value="Has New Card Usage Info？" style="rhombus;whiteSpace=wrap;html=1;" vertex="1" parent="WIyWlLk6GJQsqaUBKTNV-1">
          <mxGeometry x="225" y="440" width="180" height="110" as="geometry" />
        </mxCell>
        <mxCell id="ZsbRTiZarjH51kscYrvq-17" value="Yes" style="edgeStyle=orthogonalEdgeStyle;rounded=0;orthogonalLoop=1;jettySize=auto;html=1;" edge="1" parent="WIyWlLk6GJQsqaUBKTNV-1" source="ZsbRTiZarjH51kscYrvq-10" target="ZsbRTiZarjH51kscYrvq-16">
          <mxGeometry relative="1" as="geometry" />
        </mxCell>
        <mxCell id="ZsbRTiZarjH51kscYrvq-19" value="No" style="edgeStyle=orthogonalEdgeStyle;rounded=0;orthogonalLoop=1;jettySize=auto;html=1;" edge="1" parent="WIyWlLk6GJQsqaUBKTNV-1" source="ZsbRTiZarjH51kscYrvq-10" target="ZsbRTiZarjH51kscYrvq-18">
          <mxGeometry relative="1" as="geometry" />
        </mxCell>
        <mxCell id="ZsbRTiZarjH51kscYrvq-10" value="Matching Hand Card?" style="rhombus;whiteSpace=wrap;html=1;" vertex="1" parent="WIyWlLk6GJQsqaUBKTNV-1">
          <mxGeometry x="235" y="750" width="160" height="90" as="geometry" />
        </mxCell>
        <mxCell id="ZsbRTiZarjH51kscYrvq-15" value="" style="edgeStyle=orthogonalEdgeStyle;rounded=0;orthogonalLoop=1;jettySize=auto;html=1;" edge="1" parent="WIyWlLk6GJQsqaUBKTNV-1" source="ZsbRTiZarjH51kscYrvq-11" target="ZsbRTiZarjH51kscYrvq-10">
          <mxGeometry relative="1" as="geometry" />
        </mxCell>
        <mxCell id="ZsbRTiZarjH51kscYrvq-11" value="&lt;div&gt;Receive Raw Info()&lt;/div&gt;&lt;div&gt;&amp;nbsp;Clarify Data()&lt;/div&gt;&lt;div&gt;&lt;span style=&quot;background-color: initial;&quot;&gt;Find Card Function()&lt;/span&gt;&lt;/div&gt;&lt;div&gt;&amp;nbsp; &amp;nbsp;Find Hand Card()&lt;/div&gt;" style="rounded=0;whiteSpace=wrap;html=1;" vertex="1" parent="WIyWlLk6GJQsqaUBKTNV-1">
          <mxGeometry x="257.5" y="600" width="115" height="100" as="geometry" />
        </mxCell>
        <mxCell id="ZsbRTiZarjH51kscYrvq-22" value="" style="edgeStyle=orthogonalEdgeStyle;rounded=0;orthogonalLoop=1;jettySize=auto;html=1;" edge="1" parent="WIyWlLk6GJQsqaUBKTNV-1" source="ZsbRTiZarjH51kscYrvq-16" target="ZsbRTiZarjH51kscYrvq-20">
          <mxGeometry relative="1" as="geometry" />
        </mxCell>
        <mxCell id="ZsbRTiZarjH51kscYrvq-16" value="&lt;div&gt;Deal In Game()&lt;/div&gt;&lt;div&gt;&amp;nbsp; &amp;nbsp; &amp;nbsp;Deal In Database()&lt;/div&gt;&lt;div&gt;&amp;nbsp;Provide Feedback To Player()&lt;/div&gt;" style="rounded=0;whiteSpace=wrap;html=1;" vertex="1" parent="WIyWlLk6GJQsqaUBKTNV-1">
          <mxGeometry x="252.5" y="890" width="120" height="60" as="geometry" />
        </mxCell>
        <mxCell id="ZsbRTiZarjH51kscYrvq-21" value="" style="edgeStyle=orthogonalEdgeStyle;rounded=0;orthogonalLoop=1;jettySize=auto;html=1;" edge="1" parent="WIyWlLk6GJQsqaUBKTNV-1" source="ZsbRTiZarjH51kscYrvq-18" target="ZsbRTiZarjH51kscYrvq-20">
          <mxGeometry relative="1" as="geometry" />
        </mxCell>
        <mxCell id="ZsbRTiZarjH51kscYrvq-18" value="Log Warning(&quot;No matching hand card found for the given card information.&quot;)" style="rounded=0;whiteSpace=wrap;html=1;" vertex="1" parent="WIyWlLk6GJQsqaUBKTNV-1">
          <mxGeometry x="440" y="762.5" width="140" height="65" as="geometry" />
        </mxCell>
        <mxCell id="ZsbRTiZarjH51kscYrvq-24" style="edgeStyle=orthogonalEdgeStyle;rounded=0;orthogonalLoop=1;jettySize=auto;html=1;entryX=1;entryY=0.5;entryDx=0;entryDy=0;exitX=0.5;exitY=1;exitDx=0;exitDy=0;" edge="1" parent="WIyWlLk6GJQsqaUBKTNV-1" source="ZsbRTiZarjH51kscYrvq-20" target="ZsbRTiZarjH51kscYrvq-23">
          <mxGeometry relative="1" as="geometry" />
        </mxCell>
        <mxCell id="ZsbRTiZarjH51kscYrvq-20" value="&lt;div&gt;Deal In Game()&lt;/div&gt;&lt;div&gt;&lt;span style=&quot;background-color: initial;&quot;&gt;Deal In Database()&lt;/span&gt;&lt;/div&gt;&lt;div&gt;&amp;nbsp;Provide Feedback To Player()&lt;/div&gt;" style="rounded=0;whiteSpace=wrap;html=1;" vertex="1" parent="WIyWlLk6GJQsqaUBKTNV-1">
          <mxGeometry x="445" y="885" width="130" height="70" as="geometry" />
        </mxCell>
        <mxCell id="ZsbRTiZarjH51kscYrvq-25" style="edgeStyle=orthogonalEdgeStyle;rounded=0;orthogonalLoop=1;jettySize=auto;html=1;exitX=0.5;exitY=1;exitDx=0;exitDy=0;entryX=1;entryY=0.5;entryDx=0;entryDy=0;" edge="1" parent="WIyWlLk6GJQsqaUBKTNV-1" source="ZsbRTiZarjH51kscYrvq-23" target="ZsbRTiZarjH51kscYrvq-2">
          <mxGeometry relative="1" as="geometry">
            <mxPoint x="700" y="789.9999999999998" as="targetPoint" />
            <Array as="points">
              <mxPoint x="315" y="1090" />
              <mxPoint x="640" y="1090" />
              <mxPoint x="640" y="370" />
            </Array>
          </mxGeometry>
        </mxCell>
        <mxCell id="ZsbRTiZarjH51kscYrvq-23" value="&lt;div&gt;Update Game Status()&lt;/div&gt;&lt;div&gt;&lt;span style=&quot;background-color: initial;&quot;&gt;Update Database State()&lt;/span&gt;&lt;/div&gt;" style="rounded=0;whiteSpace=wrap;html=1;" vertex="1" parent="WIyWlLk6GJQsqaUBKTNV-1">
          <mxGeometry x="245" y="1000" width="140" height="70" as="geometry" />
        </mxCell>
        <mxCell id="ZsbRTiZarjH51kscYrvq-26" value="End" style="rounded=0;whiteSpace=wrap;html=1;" vertex="1" parent="WIyWlLk6GJQsqaUBKTNV-1">
          <mxGeometry x="70" y="480" width="120" height="60" as="geometry" />
        </mxCell>
      </root>
    </mxGraphModel>
  </diagram>
</mxfile>
